<svg id="audio-volume-muted" xmlns="http://www.w3.org/2000/svg" viewBox="0 0 64 64"><defs><style>.cls-1{fill:#f32b6a;}.cls-2{fill:none;stroke:#04e6e4;stroke-linejoin:bevel;stroke-width:1.5px;}.cls-3{fill:#036982;}</style></defs><polyline class="cls-2" points="12 62 2 62 2 52"/><polyline class="cls-2" points="62 52 62 62 52 62"/><polyline class="cls-2" points="52 2 62 2 62 12"/><polyline class="cls-2" points="2 12 2 2 12 2"/><path class="cls-1" d="M12,26h4v12h-4c-1.1,0-2-.9-2-2v-8c0-1.1,.9-2,2-2Z"/><path class="cls-1" d="M42,32c0,3.31-2.69,6-6,6v-12c3.31,0,6,2.69,6,6Z"/><path class="cls-2" d="M12,26h4v12h-4c-1.1,0-2-.9-2-2v-8c0-1.1,.9-2,2-2Z"/><polygon class="cls-2" points="36 16 36 48 16 38 16 26 36 16"/><polygon class="cls-3" points="18 36.76 18 27.24 34 19.24 34 44.76 18 36.76"/><path class="cls-2" d="M42,32c0,3.31-2.69,6-6,6v-12c3.31,0,6,2.69,6,6Z"/><polyline class="cls-2" points="56.77 25 51 32 45.23 39"/><polyline class="cls-2" points="45.23 25 51 32 56.77 39"/></svg>