<svg id="dialog-question" xmlns="http://www.w3.org/2000/svg" viewBox="0 0 64 64"><defs><style>.cls-1{fill:#f32b6a;}.cls-2{fill:none;stroke:#04e6e4;stroke-linejoin:bevel;stroke-width:1.5px;}.cls-3{fill:#036982;}</style></defs><path class="cls-2" d="M62,12v24l-2.45,2.45c-1.83-2.11-4.54-3.45-7.55-3.45-5.52,0-10,4.48-10,10h-5.5l-2-3H10.5l-3,3H2V12h3.5l2-3h29l2,3h23.5Z"/><path class="cls-3" d="M37.57,43l-2-3H9.67l-3,3h-2.67V14h2.57l2-3h26.86l2,3h22.57v21.17l-.48,.48c-2.12-1.7-4.76-2.65-7.52-2.65-5.94,0-10.88,4.33-11.83,10h-2.6Z"/><line class="cls-2" x1="12" y1="19" x2="32" y2="19"/><line class="cls-2" x1="12" y1="23" x2="42" y2="23"/><line class="cls-2" x1="12" y1="27" x2="42" y2="27"/><line class="cls-2" x1="12" y1="31" x2="42" y2="31"/><path class="cls-1" d="M62,45c0,5.52-4.48,10-10,10s-10-4.48-10-10,4.48-10,10-10c3.01,0,5.72,1.34,7.55,3.45,1.53,1.75,2.45,4.04,2.45,6.55Z"/><path class="cls-2" d="M62,45c0,5.52-4.48,10-10,10s-10-4.48-10-10,4.48-10,10-10c3.01,0,5.72,1.34,7.55,3.45,1.53,1.75,2.45,4.04,2.45,6.55Z"/><path class="cls-2" d="M49,42c0-1.83,1.65-3.29,3.54-2.95,1.21,.21,2.2,1.2,2.41,2.41,.26,1.48-.56,2.8-1.81,3.32-.71,.3-1.15,1.03-1.15,1.81v1.42"/><line class="cls-2" x1="52" y1="52" x2="52" y2="50"/></svg>