<svg id="mail-replied" xmlns="http://www.w3.org/2000/svg" viewBox="0 0 64 64"><defs><style>.cls-1{fill:#f32b6a;}.cls-2{fill:none;stroke:#04e6e4;stroke-linejoin:bevel;stroke-width:1.5px;}.cls-3{fill:#036982;}</style></defs><polygon class="cls-2" points="62 22 62 52 47.67 52 45 50 29 50 26.33 52 12 52 12 22 37 40 62 22"/><polygon class="cls-3" points="48.34 50 45.67 48 28.33 48 25.66 50 14 50 14 25.9 37 42.46 60 25.9 60 50 48.34 50"/><polygon class="cls-2" points="62 22 37 40 12 22 62 22"/><polygon class="cls-2" points="62 22 37 40 12 22 62 22"/><polygon class="cls-3" points="18.2 24 55.8 24 37 37.54 18.2 24"/><rect class="cls-1" x="2" y="12" width="20" height="20"/><rect class="cls-2" x="2" y="12" width="20" height="20"/><g><line class="cls-2" x1="6" y1="22" x2="18" y2="22"/><polyline class="cls-2" points="13 18 18 22 13 26"/></g></svg>