<svg id="media-playlist-repeat" xmlns="http://www.w3.org/2000/svg" viewBox="0 0 64 64"><defs><style>.cls-1{fill:#f32b6a;}.cls-2{fill:none;stroke:#04e6e4;stroke-linejoin:bevel;stroke-width:1.5px;}.cls-3{fill:#036982;}</style></defs><path class="cls-2" d="M62,25v14l-4.23,1.06c-2.64,8.42-9.29,15.07-17.71,17.71l-1.06,4.23h-14l-1.06-4.23c-8.42-2.64-15.07-9.29-17.71-17.71l-4.23-1.06v-14l4.23-1.06C8.87,15.52,15.52,8.87,23.94,6.23l1.06-4.23h14l1.06,4.23c8.42,2.64,15.07,9.29,17.71,17.71l4.23,1.06Z"/><path class="cls-3" d="M26.56,60l-.95-3.8-1.07-.33c-7.82-2.45-13.95-8.58-16.4-16.4l-.33-1.07-3.8-.95v-10.88l3.8-.95,.33-1.07c2.45-7.82,8.58-13.95,16.4-16.4l1.07-.33,.95-3.8h10.88l.95,3.8,1.07,.33c7.82,2.45,13.95,8.58,16.4,16.4l.33,1.07,3.8,.95v10.88l-3.8,.95-.33,1.07c-2.45,7.82-8.58,13.95-16.4,16.4l-1.07,.33-.95,3.8h-10.88Z"/><polygon class="cls-1" points="51 23 47 28.33 45 31 43 28.33 39 23 43 23 43 19 29 19 21 28 17 28 27 15 47 15 47 23 51 23"/><polygon class="cls-1" points="47 36 37 49 17 49 17 41 13 41 17 35.67 19 33 21 35.67 25 41 21 41 21 45 35 45 43 36 47 36"/><polygon class="cls-2" points="51 23 47 28.33 45 31 43 28.33 39 23 43 23 43 19 29 19 21 28 17 28 27 15 47 15 47 23 51 23"/><polygon class="cls-2" points="47 36 37 49 17 49 17 41 13 41 17 35.67 19 33 21 35.67 25 41 21 41 21 45 35 45 43 36 47 36"/></svg>