<svg id="weather-few-clouds-night" xmlns="http://www.w3.org/2000/svg" viewBox="0 0 64 64"><defs><style>.cls-1{fill:#f32b6a;}.cls-2{fill:none;stroke:#04e6e4;stroke-linejoin:bevel;stroke-width:1.5px;}.cls-3{fill:#036982;}</style></defs><path class="cls-1" d="M16,55c0,3.87,3.13,7,7,7H55c3.87,0,7-3.13,7-7s-3.13-7-7-7h-.09c-.47-2.84-2.94-5-5.91-5-.71,0-1.38,.12-2.01,.35-2.15-3.23-5.82-5.35-9.99-5.35-3.1,0-5.92,1.17-8.05,3.11-2.03,1.84-3.44,4.37-3.83,7.22-.66-.22-1.38-.33-2.12-.33-.59,0-1.17,.07-1.72,.22-1.52,.38-2.83,1.25-3.77,2.43-.95,1.2-1.51,2.71-1.51,4.35Z"/><path class="cls-2" d="M55,58c1.65,0,3-1.35,3-3"/><path class="cls-2" d="M16,55c0,3.87,3.13,7,7,7H55c3.87,0,7-3.13,7-7s-3.13-7-7-7h-.09c-.47-2.84-2.94-5-5.91-5-.71,0-1.38,.12-2.01,.35-2.15-3.23-5.82-5.35-9.99-5.35-3.1,0-5.92,1.17-8.05,3.11-2.03,1.84-3.44,4.37-3.83,7.22-.66-.22-1.38-.33-2.12-.33-.59,0-1.17,.07-1.72,.22-1.52,.38-2.83,1.25-3.77,2.43-.95,1.2-1.51,2.71-1.51,4.35Z"/><path class="cls-3" d="M48,44c0,3.87-3.13,7-7,7H9c-3.87,0-7-3.13-7-7s3.13-7,7-7h.09c.47-2.84,2.94-5,5.91-5,.71,0,1.38,.12,2.01,.35,2.15-3.23,5.82-5.35,9.99-5.35,3.1,0,5.92,1.17,8.05,3.11,2.03,1.84,3.44,4.37,3.83,7.22,.66-.22,1.38-.33,2.12-.33,.59,0,1.17,.07,1.72,.22,1.52,.38,2.83,1.25,3.77,2.43,.95,1.2,1.51,2.71,1.51,4.35Z"/><path class="cls-2" d="M9,47c-1.65,0-3-1.35-3-3"/><path class="cls-2" d="M48,44c0,3.87-3.13,7-7,7H9c-3.87,0-7-3.13-7-7s3.13-7,7-7h.09c.47-2.84,2.94-5,5.91-5,.71,0,1.38,.12,2.01,.35,2.15-3.23,5.82-5.35,9.99-5.35,3.1,0,5.92,1.17,8.05,3.11,2.03,1.84,3.44,4.37,3.83,7.22,.66-.22,1.38-.33,2.12-.33,.59,0,1.17,.07,1.72,.22,1.52,.38,2.83,1.25,3.77,2.43,.95,1.2,1.51,2.71,1.51,4.35Z"/><path class="cls-1" d="M53,31c0,4.11-2.75,7.57-6.51,8.65-.94-1.18-2.25-2.05-3.77-2.43-.55-.15-1.13-.22-1.72-.22-.74,0-1.46,.11-2.12,.33-.16-1.18-.49-2.29-.97-3.33h.09c4.97,0,9-4.03,9-9,0-.9-.13-1.78-.39-2.61,3.7,1.11,6.39,4.55,6.39,8.61Z"/><path class="cls-2" d="M53,31c0,4.11-2.75,7.57-6.51,8.65-.94-1.18-2.25-2.05-3.77-2.43-.55-.15-1.13-.22-1.72-.22-.74,0-1.46,.11-2.12,.33-.16-1.18-.49-2.29-.97-3.33h.09c4.97,0,9-4.03,9-9,0-.9-.13-1.78-.39-2.61,3.7,1.11,6.39,4.55,6.39,8.61Z"/><line class="cls-2" x1="44" y1="19" x2="44" y2="13"/><line class="cls-2" x1="41" y1="16" x2="47" y2="16"/><line class="cls-2" x1="36.01" y1="22.72" x2="31.77" y2="18.48"/><line class="cls-2" x1="31.99" y1="22.72" x2="36.23" y2="18.48"/><line class="cls-2" x1="52.99" y1="38.28" x2="57.23" y2="42.52"/><line class="cls-2" x1="57.01" y1="38.28" x2="52.77" y2="42.52"/><line class="cls-2" x1="56" y1="30" x2="62" y2="30"/><line class="cls-2" x1="59" y1="27" x2="59" y2="33"/><line class="cls-2" x1="52.28" y1="22.01" x2="56.52" y2="17.77"/><line class="cls-2" x1="56.72" y1="22.01" x2="52.48" y2="17.77"/></svg>