<svg id="weather-snow" xmlns="http://www.w3.org/2000/svg" viewBox="0 0 64 64"><defs><style>.cls-1{fill:#f32b6a;}.cls-2{fill:none;stroke:#04e6e4;stroke-linejoin:bevel;stroke-width:1.5px;}.cls-3{fill:#036982;}</style></defs><path class="cls-1" d="M62,30c0,3.87-3.13,7-7,7H23c-3.87,0-7-3.13-7-7s3.13-7,7-7h.09c.47-2.84,2.94-5,5.91-5,.71,0,1.38,.12,2.01,.35,2.15-3.23,5.82-5.35,9.99-5.35,3.1,0,5.92,1.17,8.05,3.11,2.03,1.84,3.44,4.37,3.83,7.22,.66-.22,1.38-.33,2.12-.33,.59,0,1.17,.07,1.72,.22,1.52,.38,2.83,1.25,3.77,2.43,.95,1.2,1.51,2.71,1.51,4.35Z"/><path class="cls-2" d="M62,30c0,3.87-3.13,7-7,7H23c-3.87,0-7-3.13-7-7s3.13-7,7-7h.09c.47-2.84,2.94-5,5.91-5,.71,0,1.38,.12,2.01,.35,2.15-3.23,5.82-5.35,9.99-5.35,3.1,0,5.92,1.17,8.05,3.11,2.03,1.84,3.44,4.37,3.83,7.22,.66-.22,1.38-.33,2.12-.33,.59,0,1.17,.07,1.72,.22,1.52,.38,2.83,1.25,3.77,2.43,.95,1.2,1.51,2.71,1.51,4.35Z"/><path class="cls-3" d="M48,44c0,3.87-3.13,7-7,7H9c-3.87,0-7-3.13-7-7s3.13-7,7-7h.09c.47-2.84,2.94-5,5.91-5,.71,0,1.38,.12,2.01,.35,2.15-3.23,5.82-5.35,9.99-5.35,3.1,0,5.92,1.17,8.05,3.11,2.03,1.84,3.44,4.37,3.83,7.22,.66-.22,1.38-.33,2.12-.33,.59,0,1.17,.07,1.72,.22,1.52,.38,2.83,1.25,3.77,2.43,.95,1.2,1.51,2.71,1.51,4.35Z"/><path class="cls-2" d="M9,47c-1.65,0-3-1.35-3-3"/><path class="cls-2" d="M48,44c0,3.87-3.13,7-7,7H9c-3.87,0-7-3.13-7-7s3.13-7,7-7h.09c.47-2.84,2.94-5,5.91-5,.71,0,1.38,.12,2.01,.35,2.15-3.23,5.82-5.35,9.99-5.35,3.1,0,5.92,1.17,8.05,3.11,2.03,1.84,3.44,4.37,3.83,7.22,.66-.22,1.38-.33,2.12-.33,.59,0,1.17,.07,1.72,.22,1.52,.38,2.83,1.25,3.77,2.43,.95,1.2,1.51,2.71,1.51,4.35Z"/><line class="cls-2" x1="52" y1="46" x2="62" y2="46"/><line class="cls-2" x1="57" y1="51" x2="57" y2="41"/><line class="cls-2" x1="53.46" y1="49.54" x2="60.54" y2="42.46"/><line class="cls-2" x1="60.54" y1="49.54" x2="53.46" y2="42.46"/><line class="cls-2" x1="42" y1="57" x2="52" y2="57"/><line class="cls-2" x1="47" y1="62" x2="47" y2="52"/><line class="cls-2" x1="43.46" y1="60.54" x2="50.54" y2="53.46"/><line class="cls-2" x1="50.54" y1="60.54" x2="43.46" y2="53.46"/><line class="cls-2" x1="27" y1="43" x2="37" y2="43"/><line class="cls-2" x1="32" y1="48" x2="32" y2="38"/><line class="cls-2" x1="28.46" y1="46.54" x2="35.54" y2="39.46"/><line class="cls-2" x1="35.54" y1="46.54" x2="28.46" y2="39.46"/></svg>