<svg xmlns="http://www.w3.org/2000/svg" viewBox="0 0 64 64"><defs><style>.cls-1{fill:none;stroke:#04e6e4;stroke-linejoin:bevel;stroke-width:1.5px;}.cls-2{fill:#036982;}.cls-3{fill:#f32b6a;}</style></defs><g id="go-home"><polygon class="cls-1" points="62 12 62 62 12 62 2 52 2 2 52 2 62 12"/><polygon class="cls-2" points="12.83 60 4 51.17 4 4 51.17 4 60 12.83 60 60 12.83 60"/><polygon class="cls-1" points="52 52 12 52 12 28 32 12 52 28 52 52"/><polygon class="cls-3" points="14 50 14 28.96 32 14.56 50 28.96 50 50 14 50"/><rect class="cls-1" x="26" y="38" width="12" height="14"/><rect class="cls-2" x="27" y="41" width="10" height="8" transform="translate(77 13) rotate(90)"/></g></svg>