<svg xmlns="http://www.w3.org/2000/svg" viewBox="0 0 64 64"><defs><style>.cls-1{fill:none;stroke:#04e6e4;stroke-linejoin:bevel;stroke-width:1.5px;}.cls-2{fill:#036982;}.cls-3{fill:#f32b6a;}</style></defs><g id="mail-send"><polygon class="cls-1" points="62 7 62 42 53.33 42 49 39 49 42 2 42 2 7 32 28 62 7"/><polygon class="cls-2" points="4 40 4 10.84 32 30.44 60 10.84 60 40 4 40"/><polygon class="cls-1" points="62 7 32 28 2 7 62 7"/><polygon class="cls-3" points="8.35 9 55.66 9 32 25.56 8.35 9"/><polygon class="cls-1" points="62 48 49 57 49 39 53.33 42 62 48"/><polygon class="cls-3" points="51 53.18 58.49 48 51 42.82 51 53.18"/><polyline class="cls-1" points="49 48 42 48 36 42 36 31"/></g></svg>