<svg xmlns="http://www.w3.org/2000/svg" viewBox="0 0 64 64"><defs><style>.cls-1{fill:none;stroke:#04e6e4;stroke-linejoin:bevel;stroke-width:1.5px;}.cls-2{fill:#036982;}.cls-3{fill:#f32b6a;}</style></defs><g id="system-lock-screen"><rect class="cls-1" x="2" y="8" width="60" height="36"/><rect class="cls-2" x="16" y="-2" width="32" height="56" transform="translate(58 -6) rotate(90)"/><polygon class="cls-1" points="50 50 52 56 12 56 14 50 24.6 50 27 44 37 44 39.4 50 50 50"/><polygon class="cls-3" points="14.78 54 15.44 52 25.95 52 28.35 46 35.65 46 38.05 52 48.56 52 49.23 54 14.78 54"/><polygon class="cls-1" points="39 25 39 31 35 35 25 35 25 25 39 25"/><polygon class="cls-3" points="27 33 27 27 37 27 37 30.17 34.17 33 27 33"/><path class="cls-1" d="M32,17h0a5,5,0,0,1,5,5v3a0,0,0,0,1,0,0H27a0,0,0,0,1,0,0V22A5,5,0,0,1,32,17Z"/><line class="cls-1" x1="32" y1="28" x2="32" y2="32"/></g></svg>