<svg style="" height="8em" width="8em" xmlns="http://www.w3.org/2000/svg" viewBox="0 0 64 64"><defs></defs><g id="applications-engineering"><line x1="32" y1="58" x2="32" y2="44" style="stroke-dasharray: 4, 4; fill: none; stroke: rgb(248, 135, 255); stroke-linejoin: bevel; stroke-width: 1px;"></line><path d="M40.76,34.1l2.63,2.17-2,3.46-3.21-1.2a8.9,8.9,0,0,1-3.62,2.1L34,44H30l-.56-3.37a8.9,8.9,0,0,1-3.62-2.1l-3.21,1.2-2-3.46,2.63-2.17a9.31,9.31,0,0,1,0-4.2l-2.63-2.17,2-3.46,3.21,1.2a8.9,8.9,0,0,1,3.62-2.1L30,20h4l.56,3.37a8.9,8.9,0,0,1,3.62,2.1l3.21-1.2,2,3.46L40.76,29.9a9.31,9.31,0,0,1,0,4.2Z" style="fill: rgb(50, 20, 80);"></path><circle cx="32" cy="32" r="5" style="fill: rgb(222, 0, 78);"></circle><path d="M40.76,34.1l2.63,2.17-2,3.46-3.21-1.2a8.9,8.9,0,0,1-3.62,2.1L34,44H30l-.56-3.37a8.9,8.9,0,0,1-3.62-2.1l-3.21,1.2-2-3.46,2.63-2.17a9.31,9.31,0,0,1,0-4.2l-2.63-2.17,2-3.46,3.21,1.2a8.9,8.9,0,0,1,3.62-2.1L30,20h4l.56,3.37a8.9,8.9,0,0,1,3.62,2.1l3.21-1.2,2,3.46L40.76,29.9a9.31,9.31,0,0,1,0,4.2Z" style="fill: none; stroke: rgb(248, 135, 255); stroke-linejoin: bevel; stroke-width: 1px;"></path><circle cx="32" cy="32" r="5" style="fill: none; stroke: rgb(248, 135, 255); stroke-linejoin: bevel; stroke-width: 1px;"></circle><circle cx="32" cy="4" r="2" style="fill: rgb(222, 0, 78);"></circle><circle cx="7" cy="32" r="2" style="fill: rgb(222, 0, 78);"></circle><circle cx="57" cy="32" r="2" style="fill: rgb(222, 0, 78);"></circle><circle cx="16.41" cy="23" r="2" style="fill: rgb(222, 0, 78);"></circle><circle cx="16.41" cy="41" r="2" style="fill: rgb(222, 0, 78);"></circle><circle cx="47.59" cy="41" r="2" style="fill: rgb(222, 0, 78);"></circle><circle cx="47.59" cy="23" r="2" style="fill: rgb(222, 0, 78);"></circle><circle cx="32" cy="60" r="2" style="fill: rgb(222, 0, 78);"></circle><circle cx="32" cy="4" r="2" style="fill: none; stroke: rgb(248, 135, 255); stroke-linejoin: bevel; stroke-width: 1px;"></circle><circle cx="20" cy="8" r="2" style="fill: rgb(50, 20, 80);"></circle><circle cx="58" cy="5" r="3" style="fill: rgb(50, 20, 80);"></circle><circle cx="58" cy="59" r="3" style="fill: rgb(50, 20, 80);"></circle><circle cx="6" cy="5" r="3" style="fill: rgb(50, 20, 80);"></circle><circle cx="6" cy="59" r="3" style="fill: rgb(50, 20, 80);"></circle><circle cx="44" cy="8" r="2" style="fill: rgb(50, 20, 80);"></circle><circle cx="20" cy="56" r="2" style="fill: rgb(50, 20, 80);"></circle><circle cx="44" cy="56" r="2" style="fill: rgb(50, 20, 80);"></circle><circle cx="20" cy="8" r="2" style="fill: none; stroke: rgb(248, 135, 255); stroke-linejoin: bevel; stroke-width: 1px;"></circle><line x1="32" y1="6" x2="32" y2="20" style="stroke-dasharray: 4, 4; fill: none; stroke: rgb(248, 135, 255); stroke-linejoin: bevel; stroke-width: 1px;"></line><circle cx="7" cy="32" r="2" style="fill: none; stroke: rgb(248, 135, 255); stroke-linejoin: bevel; stroke-width: 1px;"></circle><line x1="9" y1="32" x2="23" y2="32" style="stroke-dasharray: 4, 4; fill: none; stroke: rgb(248, 135, 255); stroke-linejoin: bevel; stroke-width: 1px;"></line><circle cx="57" cy="32" r="2" style="fill: none; stroke: rgb(248, 135, 255); stroke-linejoin: bevel; stroke-width: 1px;"></circle><line x1="55" y1="32" x2="41" y2="32" style="stroke-dasharray: 4, 4; fill: none; stroke: rgb(248, 135, 255); stroke-linejoin: bevel; stroke-width: 1px;"></line><circle cx="16.41" cy="23" r="2" style="fill: none; stroke: rgb(248, 135, 255); stroke-linejoin: bevel; stroke-width: 1px;"></circle><line x1="18.14" y1="24" x2="21.61" y2="26" style="fill: none; stroke: rgb(248, 135, 255); stroke-linejoin: bevel; stroke-width: 1px;"></line><circle cx="16.41" cy="41" r="2" style="fill: none; stroke: rgb(248, 135, 255); stroke-linejoin: bevel; stroke-width: 1px;"></circle><line x1="18.14" y1="40" x2="21.61" y2="38" style="fill: none; stroke: rgb(248, 135, 255); stroke-linejoin: bevel; stroke-width: 1px;"></line><circle cx="47.59" cy="41" r="2" style="fill: none; stroke: rgb(248, 135, 255); stroke-linejoin: bevel; stroke-width: 1px;"></circle><line x1="45.86" y1="40" x2="42.39" y2="38" style="fill: none; stroke: rgb(248, 135, 255); stroke-linejoin: bevel; stroke-width: 1px;"></line><circle cx="47.59" cy="23" r="2" style="fill: none; stroke: rgb(248, 135, 255); stroke-linejoin: bevel; stroke-width: 1px;"></circle><line x1="45.86" y1="24" x2="42.39" y2="26" style="fill: none; stroke: rgb(248, 135, 255); stroke-linejoin: bevel; stroke-width: 1px;"></line><polyline points="49.32 22 57.98 17 57.98 8" style="stroke-dasharray: 4, 4; fill: none; stroke: rgb(248, 135, 255); stroke-linejoin: bevel; stroke-width: 1px;"></polyline><circle cx="58" cy="5" r="3" style="fill: none; stroke: rgb(248, 135, 255); stroke-linejoin: bevel; stroke-width: 1px;"></circle><polyline points="49.32 42 57.98 47 57.98 56" style="stroke-dasharray: 4, 4; fill: none; stroke: rgb(248, 135, 255); stroke-linejoin: bevel; stroke-width: 1px;"></polyline><circle cx="58" cy="59" r="3" style="fill: none; stroke: rgb(248, 135, 255); stroke-linejoin: bevel; stroke-width: 1px;"></circle><polyline points="14.68 22 6.02 17 6.02 8" style="stroke-dasharray: 4, 4; fill: none; stroke: rgb(248, 135, 255); stroke-linejoin: bevel; stroke-width: 1px;"></polyline><circle cx="6" cy="5" r="3" style="fill: none; stroke: rgb(248, 135, 255); stroke-linejoin: bevel; stroke-width: 1px;"></circle><polyline points="14.68 42 6.02 47 6.02 56" style="stroke-dasharray: 4, 4; fill: none; stroke: rgb(248, 135, 255); stroke-linejoin: bevel; stroke-width: 1px;"></polyline><circle cx="6" cy="59" r="3" style="fill: none; stroke: rgb(248, 135, 255); stroke-linejoin: bevel; stroke-width: 1px;"></circle><polyline points="27.52 24.2 20 14 20 10" style="fill: none; stroke: rgb(248, 135, 255); stroke-linejoin: bevel; stroke-width: 1px;"></polyline><circle cx="44" cy="8" r="2" style="fill: none; stroke: rgb(248, 135, 255); stroke-linejoin: bevel; stroke-width: 1px;"></circle><polyline points="36.48 24.2 44 14 44 10" style="fill: none; stroke: rgb(248, 135, 255); stroke-linejoin: bevel; stroke-width: 1px;"></polyline><circle cx="32" cy="60" r="2" style="fill: none; stroke: rgb(248, 135, 255); stroke-linejoin: bevel; stroke-width: 1px;"></circle><circle cx="20" cy="56" r="2" style="fill: none; stroke: rgb(248, 135, 255); stroke-linejoin: bevel; stroke-width: 1px;"></circle><polyline points="27.52 39.8 20 50 20 54" style="fill: none; stroke: rgb(248, 135, 255); stroke-linejoin: bevel; stroke-width: 1px;"></polyline><circle cx="44" cy="56" r="2" style="fill: none; stroke: rgb(248, 135, 255); stroke-linejoin: bevel; stroke-width: 1px;"></circle><polyline points="36.48 39.8 44 50 44 54" style="fill: none; stroke: rgb(248, 135, 255); stroke-linejoin: bevel; stroke-width: 1px;"></polyline></g></svg>