<svg xmlns="http://www.w3.org/2000/svg" viewBox="0 0 64 64"><defs><style>.cls-1{fill:none;stroke:#04e6e4;stroke-linejoin:bevel;stroke-width:1.5px;}.cls-2{fill:#036982;}.cls-3{fill:#f32b6a;}</style></defs><g id="applications-graphics"><rect class="cls-1" x="9" y="9" width="46" height="46"/><rect class="cls-2" x="11" y="11" width="42" height="42" transform="translate(64) rotate(90)"/><polygon class="cls-2" points="62 16 58 18 58 6 46 6 48 2 60 2 62 2 62 4 62 16"/><polygon class="cls-2" points="62 44 58 46 58 58 44 58 46 62 60 62 62 62 62 60 62 44"/><polygon class="cls-2" points="2 16 6 18 6 6 18 6 16 2 4 2 2 2 2 4 2 16"/><polygon class="cls-1" points="62 16 58 18 58 6 46 6 48 2 60 2 62 2 62 4 62 16"/><polygon class="cls-1" points="62 44 58 46 58 58 44 58 46 62 60 62 62 62 62 60 62 44"/><line class="cls-1" x1="62" y1="20" x2="58" y2="22"/><line class="cls-1" x1="62" y1="24" x2="58" y2="26"/><line class="cls-1" x1="62" y1="28" x2="58" y2="30"/><line class="cls-1" x1="62" y1="32" x2="58" y2="34"/><line class="cls-1" x1="62" y1="36" x2="58" y2="38"/><line class="cls-1" x1="62" y1="40" x2="58" y2="42"/><polygon class="cls-1" points="2 16 6 18 6 6 18 6 16 2 4 2 2 2 2 4 2 16"/><polyline class="cls-1" points="20 2 22 6 42 6 44 2"/><polyline class="cls-1" points="41.53 62 10 62 4 56 4 21.47"/><path class="cls-3" d="M46,18.56h0A2.1,2.1,0,0,1,46,21.45L31.11,37.66l-4.25-4.25L43.07,18.5A2.1,2.1,0,0,1,46,18.56Z"/><path class="cls-3" d="M17.67,38.36a6,6,0,0,1,5.44-1.63l4.41,4.41c.4,2.26-.52,4.61-2.78,4.3-4.95-.71-7.07,1.41-7.07,1.41S15.33,40.7,17.67,38.36Z"/><path class="cls-1" d="M46,18.56h0A2.1,2.1,0,0,1,46,21.45L31.11,37.66l-4.25-4.25L43.07,18.5A2.1,2.1,0,0,1,46,18.56Z"/><path class="cls-1" d="M23.33,34.12,25.45,32l7.07,7.07L30.4,41.19a2,2,0,0,1-2.83,0L23.33,37A2,2,0,0,1,23.33,34.12Z"/><path class="cls-1" d="M17.67,38.36a6,6,0,0,1,5.44-1.63l4.41,4.41c.4,2.26-.52,4.61-2.78,4.3-4.95-.71-7.07,1.41-7.07,1.41S15.33,40.7,17.67,38.36Z"/></g></svg>