<svg xmlns="http://www.w3.org/2000/svg" viewBox="0 0 64 64"><defs><style>.cls-1{fill:none;stroke:#04e6e4;stroke-linejoin:bevel;stroke-width:1.5px;}.cls-2{fill:#036982;}.cls-3{fill:#f32b6a;}.cls-4{fill:#04e6e4;}</style></defs><g id="applications-science"><rect class="cls-1" x="9" y="9" width="46" height="46"/><rect class="cls-2" x="11" y="11" width="42" height="42" transform="translate(64) rotate(90)"/><polygon class="cls-2" points="62 16 58 18 58 6 46 6 48 2 60 2 62 2 62 4 62 16"/><polygon class="cls-2" points="62 44 58 46 58 58 44 58 46 62 60 62 62 62 62 60 62 44"/><polygon class="cls-2" points="2 16 6 18 6 6 18 6 16 2 4 2 2 2 2 4 2 16"/><polygon class="cls-1" points="62 16 58 18 58 6 46 6 48 2 60 2 62 2 62 4 62 16"/><polygon class="cls-1" points="62 44 58 46 58 58 44 58 46 62 60 62 62 62 62 60 62 44"/><line class="cls-1" x1="62" y1="20" x2="58" y2="22"/><line class="cls-1" x1="62" y1="24" x2="58" y2="26"/><line class="cls-1" x1="62" y1="28" x2="58" y2="30"/><line class="cls-1" x1="62" y1="32" x2="58" y2="34"/><line class="cls-1" x1="62" y1="36" x2="58" y2="38"/><line class="cls-1" x1="62" y1="40" x2="58" y2="42"/><polygon class="cls-1" points="2 16 6 18 6 6 18 6 16 2 4 2 2 2 2 4 2 16"/><polyline class="cls-1" points="20 2 22 6 42 6 44 2"/><polyline class="cls-1" points="41.53 62 10 62 4 56 4 21.47"/><rect class="cls-3" x="26" y="14" width="12" height="4" rx="2"/><rect class="cls-1" x="26" y="14" width="12" height="4" rx="2"/><polygon class="cls-3" points="50 44 50 50 14 50 14 44 23.38 34 40.63 34 50 44"/><polygon class="cls-1" points="50 44 50 50 14 50 14 44 23.38 34 40.63 34 50 44"/><polygon class="cls-1" points="40.63 34 23.38 34 29 28 29 18 35 18 35 28 40.63 34"/><circle class="cls-4" cx="25" cy="41" r="1"/><circle class="cls-4" cx="28" cy="44" r="1"/><circle class="cls-4" cx="29" cy="40" r="1"/></g></svg>