<svg xmlns="http://www.w3.org/2000/svg" viewBox="0 0 64 64"><defs><style>.cls-1{fill:#f32b6a;}.cls-2{fill:#036982;}.cls-3{fill:none;stroke:#04e6e4;stroke-linejoin:bevel;stroke-width:1.5px;}</style></defs><g id="applications-other"><path class="cls-1" d="M26,28H10L8,26V10l2-2H26l2,2V26Z"/><path class="cls-2" d="M38,28H54l2-2V10L54,8H38l-2,2V26Z"/><path class="cls-2" d="M26,36H10L8,38V54l2,2H26l2-2V38Z"/><path class="cls-1" d="M38,36H54l2,2V54l-2,2H38l-2-2V38Z"/><path class="cls-3" d="M26,28H10L8,26V10l2-2H26l2,2V26Z"/><path class="cls-3" d="M38,28H54l2-2V10L54,8H38l-2,2V26Z"/><polyline class="cls-3" points="28.48 62 7.51 62 2 56.48 2 35.52"/><polyline class="cls-3" points="35.52 2 56.48 2 62 7.51 62 28.48"/><path class="cls-3" d="M26,36H10L8,38V54l2,2H26l2-2V38Z"/><path class="cls-3" d="M38,36H54l2,2V54l-2,2H38l-2-2V38Z"/></g></svg>