<svg xmlns="http://www.w3.org/2000/svg" viewBox="0 0 64 64"><defs><style>.cls-1{fill:none;stroke:#04e6e4;stroke-linejoin:bevel;stroke-width:1.5px;}.cls-2{fill:#036982;}.cls-3{fill:#f32b6a;}</style></defs><g id="applications-internet"><rect class="cls-1" x="9" y="9" width="46" height="46"/><rect class="cls-2" x="11" y="11" width="42" height="42" transform="translate(64) rotate(90)"/><polygon class="cls-2" points="62 16 58 18 58 6 46 6 48 2 60 2 62 2 62 4 62 16"/><polygon class="cls-2" points="62 44 58 46 58 58 44 58 46 62 60 62 62 62 62 60 62 44"/><polygon class="cls-2" points="2 16 6 18 6 6 18 6 16 2 4 2 2 2 2 4 2 16"/><polygon class="cls-1" points="62 16 58 18 58 6 46 6 48 2 60 2 62 2 62 4 62 16"/><polygon class="cls-1" points="62 44 58 46 58 58 44 58 46 62 60 62 62 62 62 60 62 44"/><line class="cls-1" x1="62" y1="20" x2="58" y2="22"/><line class="cls-1" x1="62" y1="24" x2="58" y2="26"/><line class="cls-1" x1="62" y1="28" x2="58" y2="30"/><line class="cls-1" x1="62" y1="32" x2="58" y2="34"/><line class="cls-1" x1="62" y1="36" x2="58" y2="38"/><line class="cls-1" x1="62" y1="40" x2="58" y2="42"/><polygon class="cls-1" points="2 16 6 18 6 6 18 6 16 2 4 2 2 2 2 4 2 16"/><polyline class="cls-1" points="20 2 22 6 42 6 44 2"/><polyline class="cls-1" points="41.53 62 10 62 4 56 4 21.47"/><circle class="cls-3" cx="32" cy="32" r="16"/><circle class="cls-1" cx="32" cy="32" r="16"/><ellipse class="cls-1" cx="32" cy="32" rx="8" ry="16"/><ellipse class="cls-1" cx="32" cy="32" rx="16" ry="8"/><line class="cls-1" x1="32" y1="16" x2="32" y2="48"/><line class="cls-1" x1="48" y1="32" x2="16" y2="32"/></g></svg>