<svg xmlns="http://www.w3.org/2000/svg" viewBox="0 0 64 64"><defs><style>.cls-1{fill:none;stroke:#04e6e4;stroke-linejoin:bevel;stroke-width:1.5px;}.cls-2{fill:#f32b6a;}.cls-3{fill:#036982;}.cls-4{fill:#04e6e4;}</style></defs><g id="applications-games"><polygon class="cls-1" points="62 52 62 56 56 62 22 62 22 58 28 52 62 52"/><polygon class="cls-2" points="24 60 24 58.83 28.83 54 60 54 60 55.17 55.17 60 24 60"/><polygon class="cls-1" points="58 12 58 52 28 52 22 58 14 58 8 52 8 39 2 36 2 20 6 18 6 6 8 2 24 2 26 6 52 6 58 12"/><polygon class="cls-3" points="14.83 56 10 51.17 10 37.76 4 34.76 4 21.24 8 19.24 8 6.47 9.24 4 22.76 4 24.76 8 51.17 8 56 12.83 56 50 27.17 50 21.17 56 14.83 56"/><line class="cls-1" x1="6" y1="18" x2="6" y2="34"/><line class="cls-1" x1="6" y1="46" x2="2" y2="44"/><line class="cls-1" x1="6" y1="42" x2="2" y2="40"/><line class="cls-1" x1="6" y1="50" x2="2" y2="48"/><line class="cls-1" x1="26" y1="6" x2="12" y2="6"/><line class="cls-1" x1="28" y1="4" x2="27" y2="2"/><line class="cls-1" x1="31" y1="4" x2="30" y2="2"/><line class="cls-1" x1="34" y1="4" x2="33" y2="2"/><line class="cls-1" x1="37" y1="4" x2="36" y2="2"/><line class="cls-1" x1="40" y1="4" x2="39" y2="2"/><line class="cls-1" x1="43" y1="4" x2="42" y2="2"/><line class="cls-1" x1="46" y1="4" x2="45" y2="2"/><line class="cls-1" x1="49" y1="4" x2="48" y2="2"/><line class="cls-1" x1="52" y1="4" x2="51" y2="2"/><path class="cls-2" d="M44.78,45A6.13,6.13,0,0,1,41,43.7a6,6,0,0,1-2.17-3.33l-.11-.46A3,3,0,1,0,35,37H29a3,3,0,1,0-3.73,2.91l-.11.46a6.12,6.12,0,0,1-12-1.47,5.84,5.84,0,0,1,.08-1l2-11.87a6,6,0,0,1,5.92-5H25l1,2H38l1-2h3.92a6,6,0,0,1,5.92,5l2,11.87A6.12,6.12,0,0,1,44.78,45Z"/><path class="cls-1" d="M44.78,45A6.13,6.13,0,0,1,41,43.7a6,6,0,0,1-2.17-3.33l-.11-.46A3,3,0,1,0,35,37H29a3,3,0,1,0-3.73,2.91l-.11.46a6.12,6.12,0,0,1-12-1.47,5.84,5.84,0,0,1,.08-1l2-11.87a6,6,0,0,1,5.92-5H25l1,2H38l1-2h3.92a6,6,0,0,1,5.92,5l2,11.87A6.12,6.12,0,0,1,44.78,45Z"/><polygon class="cls-1" points="40 19 38 23 26 23 24 19 40 19"/><line class="cls-1" x1="22" y1="27" x2="22" y2="25"/><line class="cls-1" x1="22" y1="31" x2="22" y2="29"/><line class="cls-1" x1="23" y1="28" x2="25" y2="28"/><line class="cls-1" x1="19" y1="28" x2="21" y2="28"/><circle class="cls-4" cx="42" cy="26" r="1"/><circle class="cls-4" cx="42" cy="30" r="1"/><circle class="cls-4" cx="44.5" cy="28" r="1"/><circle class="cls-4" cx="39.5" cy="28" r="1"/><path class="cls-1" d="M41,37a3,3,0,0,1-2.27,2.91A2.92,2.92,0,0,1,38,40a3,3,0,1,1,3-3Z"/><path class="cls-1" d="M29,37a3,3,0,0,1-3,3,2.92,2.92,0,0,1-.73-.09A3,3,0,1,1,29,37Z"/></g></svg>