<svg xmlns="http://www.w3.org/2000/svg" viewBox="0 0 64 64"><defs><style>.cls-1{fill:none;stroke:#04e6e4;stroke-linejoin:bevel;stroke-width:1.5px;}.cls-2{fill:#036982;}.cls-3{fill:#f32b6a;}.cls-4{fill:#04e6e4;}</style></defs><g id="applications-science"><polygon class="cls-1" points="49 38 49 52 39 52 31 62 9 62 3 56 3 25.47 31.13 25.47 25 32 25 38 49 38"/><polygon class="cls-2" points="9.83 60 5 55.17 5 27.47 26.51 27.47 23 31.21 23 40 47 40 47 50 38.04 50 30.04 60 9.83 60"/><rect class="cls-2" x="37" y="2" width="12" height="4" rx="2"/><rect class="cls-1" x="37" y="2" width="12" height="4" rx="2"/><polygon class="cls-3" points="61 32 61 38 25 38 25 32 31.13 25.47 34.38 22 51.63 22 61 32"/><polygon class="cls-1" points="61 32 61 38 25 38 25 32 31.13 25.47 34.38 22 51.63 22 61 32"/><polygon class="cls-1" points="51.63 22 34.38 22 40 16 40 6 46 6 46 16 51.63 22"/><circle class="cls-4" cx="36" cy="29" r="1"/><circle class="cls-4" cx="39" cy="32" r="1"/><circle class="cls-4" cx="40" cy="28" r="1"/><line class="cls-1" x1="6" y1="38" x2="14" y2="38"/><line class="cls-1" x1="6" y1="41" x2="14" y2="41"/><line class="cls-1" x1="6" y1="44" x2="14" y2="44"/><line class="cls-1" x1="14" y1="49" x2="32" y2="49"/><line class="cls-1" x1="14" y1="52" x2="32" y2="52"/><line class="cls-1" x1="14" y1="55" x2="32" y2="55"/></g></svg>