<svg xmlns="http://www.w3.org/2000/svg" viewBox="0 0 64 64"><defs><style>.cls-1{fill:none;stroke:#04e6e4;stroke-linejoin:bevel;stroke-width:1.5px;}.cls-2{fill:#036982;}.cls-3{fill:#f32b6a;}</style></defs><g id="preferences-desktop"><polygon class="cls-1" points="62 8 62 56 56 62 47 62 41 56 23 56 17 62 8 62 2 56 2 8 8 2 14 2 20 8 44 8 50 2 56 2 62 8"/><polygon class="cls-2" points="47.83 60 41.83 54 22.17 54 16.17 60 8.83 60 4 55.17 4 8.83 8.83 4 13.17 4 19.17 10 44.83 10 50.83 4 55.17 4 60 8.83 60 55.17 55.17 60 47.83 60"/><line class="cls-1" x1="41" y1="56" x2="23" y2="56"/><line class="cls-1" x1="21" y1="62" x2="43" y2="62"/><line class="cls-1" x1="25" y1="59" x2="39" y2="59"/><polygon class="cls-3" points="44 2 41 5 23 5 20 2 44 2"/><polygon class="cls-1" points="44 2 41 5 23 5 20 2 44 2"/><line class="cls-1" x1="20" y1="2" x2="14" y2="2"/><line class="cls-1" x1="44" y1="2" x2="50" y2="2"/><rect class="cls-3" x="12" y="15" width="40" height="24" rx="4"/><rect class="cls-3" x="22" y="45" width="20" height="4" rx="2"/><rect class="cls-1" x="12" y="15" width="40" height="24" rx="4"/><polygon class="cls-1" points="37 45 27 45 29 39 35 39 37 45"/><rect class="cls-1" x="22" y="45" width="20" height="4" rx="2"/><line class="cls-1" x1="32" y1="31" x2="42" y2="21"/><line class="cls-1" x1="27" y1="31" x2="37" y2="21"/></g></svg>