<svg xmlns="http://www.w3.org/2000/svg" viewBox="0 0 64 64"><defs><style>.cls-1{fill:none;stroke:#04e6e4;stroke-linejoin:bevel;stroke-width:1.5px;}.cls-2{fill:#036982;}.cls-3{fill:#f32b6a;}</style></defs><g id="system-help"><polygon class="cls-1" points="62 8 62 56 56 62 47 62 41 56 23 56 17 62 8 62 2 56 2 8 8 2 14 2 20 8 44 8 50 2 56 2 62 8"/><polygon class="cls-2" points="47.83 60 41.83 54 22.17 54 16.17 60 8.83 60 4 55.17 4 8.83 8.83 4 13.17 4 19.17 10 44.83 10 50.83 4 55.17 4 60 8.83 60 55.17 55.17 60 47.83 60"/><line class="cls-1" x1="41" y1="56" x2="23" y2="56"/><line class="cls-1" x1="21" y1="62" x2="43" y2="62"/><line class="cls-1" x1="25" y1="59" x2="39" y2="59"/><polygon class="cls-3" points="44 2 41 5 23 5 20 2 44 2"/><polygon class="cls-1" points="44 2 41 5 23 5 20 2 44 2"/><line class="cls-1" x1="20" y1="2" x2="14" y2="2"/><line class="cls-1" x1="44" y1="2" x2="50" y2="2"/><circle class="cls-1" cx="32" cy="32" r="20"/><path class="cls-3" d="M34,38H30V31l2-2a3,3,0,1,0-3-3H25a7,7,0,1,1,9,6.71Z"/><rect class="cls-3" x="30" y="41" width="4" height="4"/><path class="cls-1" d="M34,38H30V31l2-2a3,3,0,1,0-3-3H25a7,7,0,1,1,9,6.71Z"/><rect class="cls-1" x="30" y="41" width="4" height="4"/></g></svg>