<svg xmlns="http://www.w3.org/2000/svg" viewBox="0 0 64 64"><defs><style>.cls-1{fill:#f32b6a;}.cls-2{fill:#036982;}.cls-3{fill:none;stroke:#04e6e4;stroke-linejoin:bevel;stroke-width:1.5px;}.cls-4{fill:#04e6e4;}</style></defs><g id="face-smile"><polygon class="cls-1" points="60 26.36 60 37.64 58.12 38.58 58.12 50.93 42 59.08 42 56.3 32 62 22 56.3 22 59.08 5.88 50.93 5.88 38.58 4 37.64 4 26.36 5.88 25.42 5.88 13.07 22 4.92 22 7.7 32 2 42 7.7 42 4.92 58.12 13.07 58.12 25.42 60 26.36"/><polygon class="cls-2" points="18 49.42 18 52.58 9.88 48.47 9.88 36.11 8 35.17 8 28.83 9.88 27.89 9.88 15.53 18 11.42 18 14.58 32 6.6 46 14.58 46 11.42 54.12 15.53 54.12 27.89 56 28.83 56 35.17 54.12 36.11 54.12 48.47 46 52.58 46 49.42 32 57.4 18 49.42"/><polygon class="cls-3" points="60 26.36 60 37.64 58.12 38.58 58.12 50.93 42 59.08 42 56.3 32 62 22 56.3 22 59.08 5.88 50.93 5.88 38.58 4 37.64 4 26.36 5.88 25.42 5.88 13.07 22 4.92 22 7.7 32 2 42 7.7 42 4.92 58.12 13.07 58.12 25.42 60 26.36"/><polygon class="cls-3" points="18 49.42 18 52.58 9.88 48.47 9.88 36.11 8 35.17 8 28.83 9.88 27.89 9.88 15.53 18 11.42 18 14.58 32 6.6 46 14.58 46 11.42 54.12 15.53 54.12 27.89 56 28.83 56 35.17 54.12 36.11 54.12 48.47 46 52.58 46 49.42 32 57.4 18 49.42"/><path class="cls-4" d="M42,20h4a0,0,0,0,1,0,0v4a6,6,0,0,1-6,6H36a0,0,0,0,1,0,0V26A6,6,0,0,1,42,20Z"/><path class="cls-4" d="M18,20h4a6,6,0,0,1,6,6v4a0,0,0,0,1,0,0H24a6,6,0,0,1-6-6V20A0,0,0,0,1,18,20Z" transform="translate(46 50) rotate(-180)"/><path class="cls-4" d="M32,48h0A13,13,0,0,1,19,35V34h0a15.5,15.5,0,0,0,26,0h0v1A13,13,0,0,1,32,48Z"/></g></svg>