<svg xmlns="http://www.w3.org/2000/svg" viewBox="0 0 64 64"><defs><style>.cls-1{fill:none;stroke:#04e6e4;stroke-linejoin:bevel;stroke-width:1.5px;}.cls-2{fill:#036982;}.cls-3{fill:#f32b6a;}</style></defs><g id="accessories-calculator"><path class="cls-1" d="M52,23V41l3,1V56l-3,1v3a2,2,0,0,1-2,2H14a2,2,0,0,1-2-2V57L9,56V42l3-1V23L9,22V8l3-1V4a2,2,0,0,1,2-2H50a2,2,0,0,1,2,2V7l3,1V22Z"/><polygon class="cls-2" points="14 60 14 55.56 11 54.56 11 43.44 14 42.44 14 21.56 11 20.56 11 9.44 14 8.44 14 4 50 4 50 8.44 53 9.44 53 20.56 50 21.56 50 42.44 53 43.44 53 54.56 50 55.56 50 60 14 60"/><rect class="cls-1" x="14" y="10" width="36" height="10"/><rect class="cls-3" x="29" y="-1" width="6" height="32" transform="translate(47 -17) rotate(90)"/><rect class="cls-1" x="16" y="25" width="8" height="8"/><rect class="cls-3" x="18" y="27" width="4" height="4" transform="translate(49 9) rotate(90)"/><rect class="cls-1" x="40" y="25" width="8" height="8" transform="translate(88 58) rotate(-180)"/><rect class="cls-3" x="42" y="27" width="4" height="4" transform="translate(73 -15) rotate(90)"/><rect class="cls-1" x="28" y="25" width="8" height="8"/><rect class="cls-3" x="30" y="27" width="4" height="4" transform="translate(61 -3) rotate(90)"/><rect class="cls-1" x="16" y="37" width="8" height="8"/><rect class="cls-3" x="18" y="39" width="4" height="4" transform="translate(61 21) rotate(90)"/><rect class="cls-1" x="40" y="37" width="8" height="20" transform="translate(88 94) rotate(-180)"/><rect class="cls-3" x="36" y="45" width="16" height="4" transform="translate(91 3) rotate(90)"/><rect class="cls-1" x="28" y="37" width="8" height="8"/><rect class="cls-3" x="30" y="39" width="4" height="4" transform="translate(73 9) rotate(90)"/><rect class="cls-1" x="16" y="49" width="8" height="8"/><rect class="cls-3" x="18" y="51" width="4" height="4" transform="translate(73 33) rotate(90)"/><rect class="cls-1" x="28" y="49" width="8" height="8"/><rect class="cls-3" x="30" y="51" width="4" height="4" transform="translate(85 21) rotate(90)"/></g></svg>