<svg xmlns="http://www.w3.org/2000/svg" viewBox="0 0 64 64"><defs><style>.cls-1{fill:none;stroke:#04e6e4;stroke-linejoin:bevel;stroke-width:1.5px;}.cls-2{fill:#f32b6a;}.cls-3{fill:#036982;}</style></defs><g id="help-browser"><polygon class="cls-1" points="62 52 62 56 56 62 22 62 22 58 28 52 62 52"/><polygon class="cls-2" points="24 60 24 58.83 28.83 54 60 54 60 55.17 55.17 60 24 60"/><polygon class="cls-1" points="58 12 58 52 28 52 22 58 14 58 8 52 8 39 2 36 2 20 6 18 6 6 8 2 24 2 26 6 52 6 58 12"/><polygon class="cls-3" points="14.83 56 10 51.17 10 37.76 4 34.76 4 21.24 8 19.24 8 6.47 9.24 4 22.76 4 24.76 8 51.17 8 56 12.83 56 50 27.17 50 21.17 56 14.83 56"/><line class="cls-1" x1="6" y1="18" x2="6" y2="34"/><line class="cls-1" x1="6" y1="46" x2="2" y2="44"/><line class="cls-1" x1="6" y1="42" x2="2" y2="40"/><line class="cls-1" x1="6" y1="50" x2="2" y2="48"/><line class="cls-1" x1="26" y1="6" x2="12" y2="6"/><line class="cls-1" x1="28" y1="4" x2="27" y2="2"/><line class="cls-1" x1="31" y1="4" x2="30" y2="2"/><line class="cls-1" x1="34" y1="4" x2="33" y2="2"/><line class="cls-1" x1="37" y1="4" x2="36" y2="2"/><line class="cls-1" x1="40" y1="4" x2="39" y2="2"/><line class="cls-1" x1="43" y1="4" x2="42" y2="2"/><line class="cls-1" x1="46" y1="4" x2="45" y2="2"/><line class="cls-1" x1="49" y1="4" x2="48" y2="2"/><line class="cls-1" x1="52" y1="4" x2="51" y2="2"/><rect class="cls-2" x="12" y="18" width="40" height="8"/><rect class="cls-2" x="12" y="26" width="40" height="20"/><rect class="cls-1" x="12" y="18" width="40" height="8"/><rect class="cls-1" x="12" y="26" width="40" height="20"/><line class="cls-1" x1="16" y1="23" x2="16" y2="21"/><line class="cls-1" x1="20" y1="23" x2="20" y2="21"/><line class="cls-1" x1="24" y1="23" x2="24" y2="21"/><path class="cls-1" d="M28,34a4,4,0,1,1,5.54,3.69A2.51,2.51,0,0,0,32,40h0"/><line class="cls-1" x1="32" y1="41" x2="32" y2="43"/></g></svg>