<svg xmlns="http://www.w3.org/2000/svg" viewBox="0 0 64 64"><defs><style>.cls-1{fill:none;stroke:#04e6e4;stroke-linejoin:bevel;stroke-width:1.5px;}.cls-2{fill:#036982;}.cls-3{fill:#f32b6a;}</style></defs><g id="preferences-desktop-multimedia"><path class="cls-1" d="M58,12V40H44a4,4,0,0,0-4,4v8H28l-6,6H14L8,52V39L2,36V20l4-2V6L8,2H24l2,4H52Z"/><path class="cls-2" d="M14.83,56,10,51.17V37.76l-6-3V21.24l4-2V6.47L9.24,4H22.76l2,4H51.17L56,12.83V38H44a6,6,0,0,0-6,6v6H27.17l-6,6Z"/><line class="cls-1" x1="6" y1="18" x2="6" y2="34"/><line class="cls-1" x1="6" y1="46" x2="2" y2="44"/><line class="cls-1" x1="6" y1="42" x2="2" y2="40"/><line class="cls-1" x1="6" y1="50" x2="2" y2="48"/><line class="cls-1" x1="26" y1="6" x2="12" y2="6"/><line class="cls-1" x1="28" y1="4" x2="27" y2="2"/><line class="cls-1" x1="31" y1="4" x2="30" y2="2"/><line class="cls-1" x1="34" y1="4" x2="33" y2="2"/><line class="cls-1" x1="37" y1="4" x2="36" y2="2"/><line class="cls-1" x1="40" y1="4" x2="39" y2="2"/><line class="cls-1" x1="43" y1="4" x2="42" y2="2"/><line class="cls-1" x1="46" y1="4" x2="45" y2="2"/><line class="cls-1" x1="49" y1="4" x2="48" y2="2"/><line class="cls-1" x1="52" y1="4" x2="51" y2="2"/><polygon class="cls-1" points="44 30 24 18.45 24 41.55 44 30"/><polygon class="cls-3" points="26 21.92 40 30 26 38.08 26 21.92"/><rect class="cls-3" x="40" y="40" width="22" height="22" rx="4"/><rect class="cls-1" x="40" y="40" width="22" height="22" rx="4"/><line class="cls-1" x1="51" y1="55" x2="51" y2="43"/><line class="cls-1" x1="55" y1="55" x2="55" y2="50"/><line class="cls-1" x1="59" y1="58" x2="59" y2="47"/><line class="cls-1" x1="43" y1="55" x2="43" y2="50"/><line class="cls-1" x1="47" y1="59" x2="47" y2="47"/></g></svg>