<svg xmlns="http://www.w3.org/2000/svg" viewBox="0 0 64 64"><defs><style>.cls-1{fill:none;stroke:#04e6e4;stroke-linejoin:bevel;stroke-width:1.5px;}.cls-2{fill:#f32b6a;}.cls-3{fill:#036982;}</style></defs><g id="preferences-desktop-theme"><polygon class="cls-1" points="49 48 47 51 17 51 15 48 17 45 47 45 49 48"/><polygon class="cls-2" points="18.07 49 17.4 48 18.07 47 45.93 47 46.6 48 45.93 49 18.07 49"/><polygon class="cls-2" points="44 10 42 14 22 14 20 10 44 10"/><polygon class="cls-1" points="44 10 42 14 22 14 20 10 44 10"/><polygon class="cls-1" points="62 12 62 41.66 55.66 48 49 48 47 45 17 45 15 48 8.34 48 2 41.66 2 12 21 12 22 14 42 14 43 12 62 12"/><polygon class="cls-3" points="50.07 46 48.07 43 15.93 43 13.93 46 9.17 46 4 40.83 4 14 19.76 14 20.76 16 43.24 16 44.24 14 60 14 60 40.83 54.83 46 50.07 46"/><polyline class="cls-1" points="2 45.66 8.34 52 13 52 15 55 49 55 51 52 55.66 52 62 45.66"/><line class="cls-1" x1="3" y1="9" x2="18" y2="9"/><line class="cls-1" x1="61" y1="9" x2="46" y2="9"/><rect class="cls-2" x="19.82" y="24.17" width="18" height="6" transform="translate(-10.77 28.34) rotate(-45)"/><rect class="cls-2" x="37.42" y="33.78" width="4" height="8" transform="translate(-15.17 38.94) rotate(-45)"/><rect class="cls-1" x="19.82" y="24.17" width="18" height="6" transform="translate(-10.77 28.34) rotate(-45)"/><polyline class="cls-1" points="35.18 20.81 38.01 17.98 41.55 21.52 35.18 33.54 36.6 34.95"/><rect class="cls-1" x="37.42" y="33.78" width="4" height="8" transform="translate(-15.17 38.94) rotate(-45)"/></g></svg>