<svg xmlns="http://www.w3.org/2000/svg" viewBox="0 0 64 64"><defs><style>.cls-1{fill:#036982;}.cls-2{fill:none;stroke:#04e6e4;stroke-linejoin:bevel;stroke-width:1.5px;}.cls-3{fill:#f32b6a;}</style></defs><g id="contact-new"><path class="cls-1" d="M15.83,60,9,53.17V13H37.18A11,11,0,0,0,46,21.82V60Z"/><polyline class="cls-2" points="18.5 48.5 18.5 44.5 22.5 40.5 32.5 40.5 36.5 44.5 36.5 48.5"/><rect class="cls-2" x="21.5" y="24.5" width="12" height="12" rx="4"/><rect class="cls-3" x="23.5" y="26.5" width="8" height="8" rx="2" transform="translate(58 3) rotate(90)"/><path class="cls-2" d="M48,20V62H15L7,54V11H39A9,9,0,0,0,48,20Z"/><circle class="cls-2" cx="48" cy="11" r="9"/><circle class="cls-3" cx="48" cy="11" r="7"/><line class="cls-2" x1="48" y1="16" x2="48" y2="6"/><line class="cls-2" x1="43" y1="11" x2="53" y2="11"/></g></svg>