<svg xmlns="http://www.w3.org/2000/svg" viewBox="0 0 64 64"><defs><style>.cls-1{fill:none;stroke:#04e6e4;stroke-linejoin:bevel;stroke-width:1.5px;}.cls-2{fill:#036982;}.cls-3{fill:#f32b6a;}</style></defs><g id="go-last"><polygon class="cls-1" points="51 43.77 42 50 51 56.23 51 62 12 62 2 52 2 2 41 2 51 12 51 43.77"/><polygon class="cls-2" points="12.83 60 4 51.17 4 4 40.17 4 49 12.83 49 60 12.83 60"/><rect class="cls-1" x="8" y="8" width="10" height="10"/><rect class="cls-3" x="10" y="10" width="6" height="6" transform="translate(26 0) rotate(90)"/><line class="cls-1" x1="22" y1="18" x2="36" y2="18"/><rect class="cls-1" x="8" y="24" width="10" height="10"/><rect class="cls-3" x="10" y="26" width="6" height="6" transform="translate(42 16) rotate(90)"/><line class="cls-1" x1="22" y1="34" x2="36" y2="34"/><rect class="cls-1" x="8" y="40" width="10" height="10"/><rect class="cls-3" x="10" y="42" width="6" height="6" transform="translate(58 32) rotate(90)"/><line class="cls-1" x1="22" y1="50" x2="36" y2="50"/><polygon class="cls-1" points="55 41 55 59 51 56.23 42 50 51 43.77 55 41"/><polygon class="cls-3" points="53 55.18 45.51 50 53 44.82 53 55.18"/><line class="cls-1" x1="55" y1="50" x2="62" y2="50"/></g></svg>