<svg xmlns="http://www.w3.org/2000/svg" viewBox="0 0 64 64"><defs><style>.cls-1{fill:none;stroke:#04e6e4;stroke-linejoin:bevel;stroke-width:1.5px;}.cls-2{fill:#036982;}.cls-3{fill:#f32b6a;}</style></defs><g id="help-faq"><polygon class="cls-1" points="62 12 62 62 12 62 2 52 2 2 52 2 62 12"/><polygon class="cls-2" points="12.83 60 4 51.17 4 4 51.17 4 60 12.83 60 60 12.83 60"/><circle class="cls-1" cx="32" cy="32" r="20"/><circle class="cls-3" cx="32" cy="32" r="18"/><path class="cls-1" d="M34,38H30V33l2-2a4,4,0,1,0-4-4H24a8,8,0,1,1,10,7.75Z"/><polygon class="cls-1" points="30 45 30 41 34 41 30 45"/></g></svg>