<svg xmlns="http://www.w3.org/2000/svg" viewBox="0 0 64 64"><defs><style>.cls-1{fill:none;stroke:#04e6e4;stroke-linejoin:bevel;stroke-width:1.5px;}.cls-2{fill:#036982;}.cls-3{fill:#f32b6a;}</style></defs><g id="insert-text"><path class="cls-1" d="M53,12V44a9,9,0,0,0-9,9H12L2,43V2H43Z"/><path class="cls-2" d="M12.83,51,4,42.17V4H42.17L51,12.83V42.18A11,11,0,0,0,42.18,51Z"/><circle class="cls-1" cx="53" cy="53" r="9"/><circle class="cls-3" cx="53" cy="53" r="7"/><line class="cls-1" x1="53" y1="48" x2="53" y2="58"/><line class="cls-1" x1="58" y1="53" x2="48" y2="53"/><polygon class="cls-1" points="37 13.5 40 19.5 31 19.5 31 41.5 25 39.5 25 19.5 18 19.5 15 13.5 37 13.5"/><polygon class="cls-3" points="27 38.06 27 17.5 19.24 17.5 18.24 15.5 35.76 15.5 36.76 17.5 29 17.5 29 38.73 27 38.06"/></g></svg>