<svg xmlns="http://www.w3.org/2000/svg" viewBox="0 0 64 64"><defs><style>.cls-1{fill:none;stroke:#04e6e4;stroke-linejoin:bevel;stroke-width:1.5px;}.cls-2{fill:#036982;}.cls-3{fill:#f32b6a;}</style></defs><g id="mail-reply-all"><polygon class="cls-1" points="62 10 62 45 57 45 44 36 44 45 31 36 31 45 2 45 2 10 32 31 62 10"/><polygon class="cls-2" points="4 43 4 13.84 32 33.44 60 13.84 60 43 4 43"/><polygon class="cls-1" points="62 10 32 31 2 10 62 10"/><polygon class="cls-3" points="8.35 12 55.66 12 32 28.56 8.35 12"/><polygon class="cls-1" points="57 45 44 54 44 36 57 45"/><polygon class="cls-3" points="46 50.18 53.49 45 46 39.82 46 50.18"/><polygon class="cls-1" points="44 45 31 54 31 36 44 45"/><polygon class="cls-3" points="33 50.18 40.49 45 33 39.82 33 50.18"/></g></svg>