<svg xmlns="http://www.w3.org/2000/svg" viewBox="0 0 64 64"><defs><style>.cls-1{fill:none;stroke:#04e6e4;stroke-linejoin:bevel;stroke-width:1.5px;}.cls-2{fill:#f32b6a;}.cls-3{fill:#036982;}</style></defs><g id="system-log-out"><polygon class="cls-1" points="46 43 46 36 24 36 20 28 46 28 46 21 62 32 46 43"/><polygon class="cls-2" points="48 34 25.24 34 23.24 30 48 30 48 24.8 58.47 32 48 39.2 48 34"/><polygon class="cls-1" points="2 52.66 2 11.34 10.34 3 33.66 3 42 11.34 42 24 34 24 34 14.66 30.34 11 13.66 11 10 14.66 10 49.34 13.66 53 30.34 53 34 49.34 34 40 42 40 42 52.66 33.66 61 10.34 61 2 52.66"/><polygon class="cls-3" points="11.17 59 4 51.83 4 12.17 11.17 5 32.83 5 40 12.17 40 22 36 22 36 13.83 31.17 9 12.83 9 8 13.83 8 50.17 12.83 55 31.17 55 36 50.17 36 42 40 42 40 51.83 32.83 59 11.17 59"/></g></svg>