<svg xmlns="http://www.w3.org/2000/svg" viewBox="0 0 64 64"><defs><style>.cls-1{fill:none;stroke:#04e6e4;stroke-linejoin:bevel;stroke-width:1.5px;}.cls-2{fill:#f32b6a;}.cls-3{fill:#036982;}</style></defs><g id="view-restore"><polygon class="cls-1" points="39.37 17.56 54.93 14.73 42.2 2 39.37 17.56"/><polygon class="cls-2" points="43.49 6.11 41.86 15.07 50.82 13.44 43.49 6.11"/><polyline class="cls-1" points="48.56 8.36 53.52 3.41 62 3.41"/><polygon class="cls-1" points="24.63 17.56 9.07 14.73 21.8 2 24.63 17.56"/><polygon class="cls-2" points="20.51 6.11 22.14 15.07 13.18 13.44 20.51 6.11"/><polyline class="cls-1" points="15.44 8.36 10.48 3.41 2 3.41"/><polygon class="cls-1" points="39.37 46.44 54.93 49.27 42.2 62 39.37 46.44"/><polygon class="cls-2" points="43.49 57.89 41.86 48.93 50.82 50.56 43.49 57.89"/><polyline class="cls-1" points="48.56 55.64 53.52 60.59 62 60.59"/><polygon class="cls-1" points="24.63 46.44 9.07 49.27 21.8 62 24.63 46.44"/><polygon class="cls-2" points="20.51 57.89 22.14 48.93 13.18 50.56 20.51 57.89"/><polyline class="cls-1" points="15.44 55.64 10.48 60.59 2 60.59"/><rect class="cls-1" x="20" y="20" width="24" height="24"/><rect class="cls-3" x="22" y="22" width="20" height="20" transform="translate(64 0) rotate(90)"/></g></svg>