<svg xmlns="http://www.w3.org/2000/svg" viewBox="0 0 64 64"><defs><style>.cls-1{fill:none;stroke:#04e6e4;stroke-linejoin:bevel;stroke-width:1.5px;}.cls-2{fill:#036982;}.cls-3{fill:#f32b6a;}</style></defs><g id="format-indent-more"><polygon class="cls-1" points="62 12 62 62 22 62 12 52 12 2 52 2 62 12"/><polygon class="cls-2" points="22.83 60 14 51.17 14 4 51.17 4 60 12.83 60 60 22.83 60"/><line class="cls-1" x1="22" y1="22" x2="52" y2="22"/><line class="cls-1" x1="32" y1="27" x2="52" y2="27"/><line class="cls-1" x1="32" y1="32" x2="52" y2="32"/><line class="cls-1" x1="32" y1="37" x2="52" y2="37"/><line class="cls-1" x1="22" y1="42" x2="52" y2="42"/><polygon class="cls-1" points="28 32 15 23 15 41 28 32"/><polygon class="cls-3" points="17 37.18 24.49 32 17 26.82 17 37.18"/><polyline class="cls-1" points="2 26 8 32 15 32"/></g></svg>