<svg xmlns="http://www.w3.org/2000/svg" viewBox="0 0 64 64"><defs><style>.cls-1{fill:none;stroke:#04e6e4;stroke-linejoin:bevel;stroke-width:1.5px;}.cls-2{fill:#f32b6a;}.cls-3{fill:#036982;}</style></defs><g id="go-top"><polygon class="cls-1" points="53 5 62 18 44 18 53 5"/><polygon class="cls-2" points="47.82 16 53 8.51 58.18 16 47.82 16"/><polygon class="cls-1" points="41 12 41 62 12 62 2 52 2 2 31 2 41 12"/><polygon class="cls-3" points="12.83 60 4 51.17 4 4 30.17 4 39 12.83 39 60 12.83 60"/><polyline class="cls-1" points="53 18 53 25 47 31"/><rect class="cls-1" x="8" y="8" width="10" height="10"/><rect class="cls-2" x="10" y="10" width="6" height="6" transform="translate(26) rotate(90)"/><line class="cls-1" x1="22" y1="18" x2="36" y2="18"/><rect class="cls-1" x="8" y="24" width="10" height="10"/><rect class="cls-2" x="10" y="26" width="6" height="6" transform="translate(42 16) rotate(90)"/><line class="cls-1" x1="22" y1="34" x2="36" y2="34"/><rect class="cls-1" x="8" y="40" width="10" height="10"/><rect class="cls-2" x="10" y="42" width="6" height="6" transform="translate(58 32) rotate(90)"/><line class="cls-1" x1="22" y1="50" x2="36" y2="50"/><line class="cls-1" x1="61" y1="2" x2="45" y2="2"/></g></svg>