<svg xmlns="http://www.w3.org/2000/svg" viewBox="0 0 64 64"><defs><style>.cls-1{fill:none;stroke:#04e6e4;stroke-linejoin:bevel;stroke-width:1.5px;}.cls-2{fill:#036982;}.cls-3{fill:#f32b6a;}</style></defs><g id="list-remove"><path class="cls-1" d="M38,53a9,9,0,0,0,9,9H18L8,52V2H37L47,12V44A9,9,0,0,0,38,53Z"/><path class="cls-2" d="M18.83,60,10,51.17V4H36.17L45,12.83V42.18A11,11,0,0,0,38.52,60Z"/><rect class="cls-1" x="14" y="8" width="10" height="10"/><rect class="cls-3" x="16" y="10" width="6" height="6" transform="translate(32 -6) rotate(90)"/><line class="cls-1" x1="28" y1="18" x2="42" y2="18"/><rect class="cls-1" x="14" y="24" width="10" height="10"/><rect class="cls-3" x="16" y="26" width="6" height="6" transform="translate(48 10) rotate(90)"/><line class="cls-1" x1="28" y1="34" x2="42" y2="34"/><rect class="cls-1" x="14" y="40" width="10" height="10"/><rect class="cls-3" x="16" y="42" width="6" height="6" transform="translate(64 26) rotate(90)"/><line class="cls-1" x1="34.35" y1="50" x2="28" y2="50"/><circle class="cls-1" cx="47" cy="53" r="9"/><circle class="cls-3" cx="47" cy="53" r="7"/><line class="cls-1" x1="50.54" y1="49.46" x2="43.46" y2="56.54"/><line class="cls-1" x1="50.54" y1="56.54" x2="43.46" y2="49.46"/></g></svg>