<svg xmlns="http://www.w3.org/2000/svg" viewBox="0 0 64 64"><defs><style>.cls-1{fill:none;stroke:#04e6e4;stroke-linejoin:bevel;stroke-width:1.5px;}.cls-2{fill:#f32b6a;}.cls-3{fill:#036982;}</style></defs><g id="system-reboot"><rect class="cls-1" x="28" y="22" width="8" height="20"/><rect class="cls-2" x="24" y="30" width="16" height="4" transform="translate(64) rotate(90)"/><polygon class="cls-1" points="61 16.34 61 53.66 52.66 62 11.34 62 3 53.66 3 16.34 11.34 8 18 8 18 2 32 12 18 22 18 16 14.66 16 11 19.66 11 50.34 14.66 54 49.34 54 53 50.34 53 19.66 49.34 16 40 16 40 8 52.66 8 61 16.34"/><polygon class="cls-3" points="12.17 60 5 52.83 5 17.17 12.17 10 20 10 20 5.89 28.56 12 20 18.11 20 14 13.83 14 9 18.83 9 51.17 13.83 56 50.17 56 55 51.17 55 18.83 50.17 14 42 14 42 10 51.83 10 59 17.17 59 52.83 51.83 60 12.17 60"/></g></svg>