<svg xmlns="http://www.w3.org/2000/svg" viewBox="0 0 64 64"><defs><style>.cls-1{fill:#036982;}.cls-2{fill:none;stroke:#04e6e4;stroke-linecap:round;stroke-linejoin:round;stroke-width:2px;}.cls-3{fill:#f32b6a;}</style></defs><g id="audio-card"><polygon class="cls-1" points="18 8 18 62 12 62 12 8 2 8 2 2 12 2 18 8"/><rect class="cls-1" x="22" y="46" width="6" height="4"/><polygon class="cls-2" points="18 8 18 62 12 62 12 8 2 8 2 2 12 2 18 8"/><rect class="cls-3" x="6" y="18" width="6" height="4"/><rect class="cls-3" x="6" y="26" width="6" height="4"/><rect class="cls-3" x="6" y="34" width="6" height="4"/><rect class="cls-3" x="6" y="42" width="6" height="4"/><rect class="cls-2" x="6" y="18" width="6" height="4"/><polygon class="cls-1" points="62 24 62 46 52 46 52 50 46 52 46 46 42 46 42 52 32 54 32 46 18 46 18 18 56 18 62 24"/><polygon class="cls-2" points="62 24 62 46 52 46 52 50 46 52 46 46 42 46 42 52 32 54 32 46 18 46 18 18 56 18 62 24"/><rect class="cls-2" x="6" y="26" width="6" height="4"/><rect class="cls-2" x="6" y="34" width="6" height="4"/><rect class="cls-2" x="6" y="42" width="6" height="4"/><rect class="cls-2" x="22" y="46" width="6" height="4"/><rect class="cls-3" x="22" y="22" width="16" height="16"/><rect class="cls-2" x="22" y="22" width="16" height="16"/><line class="cls-2" x1="42" y1="26" x2="52" y2="26"/><line class="cls-2" x1="42" y1="30" x2="52" y2="30"/><line class="cls-2" x1="42" y1="34" x2="52" y2="34"/></g></svg>