<svg xmlns="http://www.w3.org/2000/svg" viewBox="0 0 64 64"><defs><style>.cls-1{fill:none;stroke:#04e6e4;stroke-linejoin:bevel;stroke-width:1.5px;}.cls-2{fill:#036982;}.cls-3{fill:#f32b6a;}</style></defs><g id="drive-optical"><circle class="cls-1" cx="32" cy="32" r="30"/><circle class="cls-2" cx="32" cy="32" r="28"/><circle class="cls-3" cx="32" cy="32" r="6"/><path class="cls-3" d="M44,32A12,12,0,0,0,32,20V8A24,24,0,0,1,56,32Z"/><path class="cls-3" d="M20,32A12,12,0,0,0,32,44V56A24,24,0,0,1,8,32Z"/><circle class="cls-1" cx="32" cy="32" r="6"/><path class="cls-1" d="M44,32A12,12,0,0,0,32,20V8A24,24,0,0,1,56,32Z"/><path class="cls-1" d="M20,32A12,12,0,0,0,32,44V56A24,24,0,0,1,8,32Z"/></g></svg>