<svg xmlns="http://www.w3.org/2000/svg" viewBox="0 0 64 64"><defs><style>.cls-1{fill:none;stroke:#04e6e4;stroke-linejoin:bevel;stroke-width:1.5px;}.cls-2{fill:#036982;}.cls-3{fill:#f32b6a;}</style></defs><g id="image-x-generic"><polygon class="cls-1" points="57 12 57 62 41 62 40 60 24 60 23 62 7 62 7 2 47 2 57 12"/><polygon class="cls-2" points="42.24 60 41.24 58 22.76 58 21.76 60 9 60 9 4 46.17 4 55 12.83 55 60 42.24 60"/><polygon class="cls-3" points="57 12 47 12 47 2 57 12"/><polygon class="cls-1" points="57 12 47 12 47 2 57 12"/><polygon class="cls-3" points="50 42 50 52 14 52 14 42 21.93 32.07 30 42 41 28 50 42"/><polygon class="cls-1" points="50 42 50 52 14 52 14 42 21.93 32.07 30 42 41 28 50 42"/><polygon class="cls-1" points="50 16 50 42 41 28 30 42 21.93 32.07 14 42 14 16 50 16"/><circle class="cls-3" cx="30" cy="27" r="3"/><circle class="cls-1" cx="30" cy="27" r="3"/></g></svg>