<svg xmlns="http://www.w3.org/2000/svg" viewBox="0 0 64 64"><defs><style>.cls-1{fill:none;stroke:#04e6e4;stroke-linejoin:bevel;stroke-width:1.5px;}.cls-2{fill:#036982;}.cls-3{fill:#f32b6a;}</style></defs><g id="text-html"><polygon class="cls-1" points="55 25 55 39 57 40 57 62 41 62 40 60 24 60 23 62 7 62 7 40 9 39 9 25 7 24 7 2 47 2 57 12 57 24 55 25"/><polygon class="cls-2" points="42.24 60 41.24 58 22.76 58 21.76 60 9 60 9 41.24 11 40.24 11 23.76 9 22.76 9 4 46.17 4 55 12.83 55 22.76 53 23.76 53 40.24 55 41.24 55 60 42.24 60"/><polygon class="cls-3" points="57 12 47 12 47 2 57 12"/><polygon class="cls-1" points="57 12 47 12 47 2 57 12"/><polyline class="cls-1" points="27 38 15 32 27 26"/><polyline class="cls-1" points="37 38 49 32 37 26"/><line class="cls-1" x1="36" y1="22" x2="28" y2="42"/></g></svg>